STARTFONT 2.1
COMMENT AUTOMATICALLY GENERATED FILE. DO NOT EDIT!
COMMENT Generated with 'ucs2any.pl luIS10.bdf ../../../fonts/util/map-ISO8859-1 ISO8859-1'
COMMENT from an ISO10646-1 encoded source BDF font.
COMMENT ucs2any.pl by Markus Kuhn <mkuhn@acm.org>, 2000.
COMMENT $Xorg: $
COMMENT ISO10646-1 extension by Markus Kuhn <mkuhn@acm.org>, 2001-03-20
COMMENT  (c) Copyright Bigelow & Holmes 1986, 1985. Lucida is a registered
COMMENT  trademark of Bigelow & Holmes. See LEGAL NOTICE file for terms 
COMMENT  of the license. 
FONT -B&H-Lucida-Medium-I-Normal-Sans-14-100-100-100-P-80-ISO8859-1
SIZE 10 100 100
FONTBOUNDINGBOX 28 16 -9 -3
STARTPROPERTIES 22
COMMENT Begin LogicalFontDescription
FONTNAME_REGISTRY ""
FOUNDRY "B&H"
FAMILY_NAME "Lucida"
WEIGHT_NAME "Medium"
SLANT "I"
SETWIDTH_NAME "Normal"
ADD_STYLE_NAME "Sans"
PIXEL_SIZE 14
POINT_SIZE 100
RESOLUTION_X 100
RESOLUTION_Y 100
SPACING "P"
AVERAGE_WIDTH 80
CHARSET_REGISTRY "ISO8859"
CHARSET_ENCODING "1"
COMMENT END LogicalFontDescription
FONT_ASCENT 13
FONT_DESCENT 3
DEFAULT_CHAR 0
COPYRIGHT "Copyright Bigelow & Holmes 1986, 1985."
FACE_NAME "Lucida Sans Italic"
X_HEIGHT 7
CAP_HEIGHT 10
ENDPROPERTIES
CHARS 192
STARTCHAR defaultchar
ENCODING 0
SWIDTH 735 0
DWIDTH 10 0
BBX 9 9 1 0
BITMAP
AA80
0000
8080
0000
8080
0000
8080
0000
AA80
ENDCHAR
STARTCHAR space
ENCODING 32
SWIDTH 316 0
DWIDTH 4 0
BBX 1 1 0 0
BITMAP
00
ENDCHAR
STARTCHAR exclam
ENCODING 33
SWIDTH 193 0
DWIDTH 4 0
BBX 3 10 2 0
BITMAP
60
60
60
40
40
40
40
00
00
C0
ENDCHAR
STARTCHAR quotedbl
ENCODING 34
SWIDTH 361 0
DWIDTH 5 0
BBX 4 4 2 6
BITMAP
D0
D0
D0
90
ENDCHAR
STARTCHAR numbersign
ENCODING 35
SWIDTH 633 0
DWIDTH 9 0
BBX 9 10 1 0
BITMAP
0480
0900
0900
7F80
1200
2400
FF00
4800
4800
9000
ENDCHAR
STARTCHAR dollar
ENCODING 36
SWIDTH 633 0
DWIDTH 9 0
BBX 7 13 2 -2
BITMAP
08
3E
68
68
30
30
18
14
14
2C
F8
20
20
ENDCHAR
STARTCHAR percent
ENCODING 37
SWIDTH 741 0
DWIDTH 10 0
BBX 11 10 1 0
BITMAP
3860
6880
4900
4A00
7400
0F80
1EC0
34C0
6480
C700
ENDCHAR
STARTCHAR ampersand
ENCODING 38
SWIDTH 701 0
DWIDTH 10 0
BBX 9 10 1 0
BITMAP
0E00
1B00
1300
1600
3800
E980
CD00
C700
C600
7B00
ENDCHAR
STARTCHAR quotesingle
ENCODING 39
SWIDTH 217 0
DWIDTH 3 0
BBX 2 3 2 7
BITMAP
C0
C0
C0
ENDCHAR
STARTCHAR parenleft
ENCODING 40
SWIDTH 325 0
DWIDTH 5 0
BBX 5 13 1 -3
BITMAP
08
10
20
60
40
C0
C0
C0
C0
C0
C0
40
40
ENDCHAR
STARTCHAR parenright
ENCODING 41
SWIDTH 325 0
DWIDTH 5 0
BBX 5 13 0 -3
BITMAP
20
10
10
18
18
18
18
10
10
30
60
40
80
ENDCHAR
STARTCHAR asterisk
ENCODING 42
SWIDTH 470 0
DWIDTH 7 0
BBX 6 5 2 5
BITMAP
20
A4
58
60
90
ENDCHAR
STARTCHAR plus
ENCODING 43
SWIDTH 633 0
DWIDTH 9 0
BBX 8 8 1 0
BITMAP
08
08
08
08
FF
10
10
10
ENDCHAR
STARTCHAR comma
ENCODING 44
SWIDTH 316 0
DWIDTH 4 0
BBX 2 5 1 -3
BITMAP
40
C0
40
40
80
ENDCHAR
STARTCHAR hyphen
ENCODING 45
SWIDTH 313 0
DWIDTH 4 0
BBX 3 1 2 4
BITMAP
E0
ENDCHAR
STARTCHAR period
ENCODING 46
SWIDTH 316 0
DWIDTH 4 0
BBX 2 1 1 0
BITMAP
C0
ENDCHAR
STARTCHAR slash
ENCODING 47
SWIDTH 482 0
DWIDTH 7 0
BBX 9 13 0 -3
BITMAP
0180
0100
0300
0200
0400
0C00
0800
1800
1000
2000
6000
4000
C000
ENDCHAR
STARTCHAR zero
ENCODING 48
SWIDTH 633 0
DWIDTH 9 0
BBX 8 10 1 0
BITMAP
1E
33
63
43
C3
C3
C2
C6
CC
78
ENDCHAR
STARTCHAR one
ENCODING 49
SWIDTH 633 0
DWIDTH 9 0
BBX 3 10 4 0
BITMAP
E0
20
60
40
40
40
40
C0
80
80
ENDCHAR
STARTCHAR two
ENCODING 50
SWIDTH 633 0
DWIDTH 9 0
BBX 8 10 1 0
BITMAP
1E
23
03
03
06
0C
30
60
C0
FC
ENDCHAR
STARTCHAR three
ENCODING 51
SWIDTH 633 0
DWIDTH 9 0
BBX 7 10 1 0
BITMAP
3C
06
02
06
38
0C
06
06
0C
F8
ENDCHAR
STARTCHAR four
ENCODING 52
SWIDTH 633 0
DWIDTH 9 0
BBX 7 10 1 0
BITMAP
06
0E
1C
34
64
CC
FE
08
08
18
ENDCHAR
STARTCHAR five
ENCODING 53
SWIDTH 633 0
DWIDTH 9 0
BBX 8 10 2 0
BITMAP
3F
20
20
20
78
0C
06
04
0C
F8
ENDCHAR
STARTCHAR six
ENCODING 54
SWIDTH 633 0
DWIDTH 9 0
BBX 8 10 2 0
BITMAP
0F
31
60
40
FC
E6
C2
C6
C4
78
ENDCHAR
STARTCHAR seven
ENCODING 55
SWIDTH 633 0
DWIDTH 9 0
BBX 8 10 2 0
BITMAP
7F
02
04
0C
18
30
20
60
C0
C0
ENDCHAR
STARTCHAR eight
ENCODING 56
SWIDTH 633 0
DWIDTH 9 0
BBX 8 10 2 0
BITMAP
1E
33
23
36
1C
6C
C6
C6
C4
78
ENDCHAR
STARTCHAR nine
ENCODING 57
SWIDTH 633 0
DWIDTH 9 0
BBX 8 10 1 0
BITMAP
1E
23
63
43
67
3F
02
06
8C
F8
ENDCHAR
STARTCHAR colon
ENCODING 58
SWIDTH 316 0
DWIDTH 4 0
BBX 3 7 1 0
BITMAP
60
00
00
00
00
00
C0
ENDCHAR
STARTCHAR semicolon
ENCODING 59
SWIDTH 316 0
DWIDTH 4 0
BBX 3 10 1 -3
BITMAP
60
00
00
00
00
00
C0
40
40
80
ENDCHAR
STARTCHAR less
ENCODING 60
SWIDTH 633 0
DWIDTH 9 0
BBX 9 8 1 0
BITMAP
0080
0700
1C00
F000
6000
1800
0600
0300
ENDCHAR
STARTCHAR equal
ENCODING 61
SWIDTH 633 0
DWIDTH 9 0
BBX 9 4 1 2
BITMAP
FF80
0000
0000
FF80
ENDCHAR
STARTCHAR greater
ENCODING 62
SWIDTH 633 0
DWIDTH 9 0
BBX 9 8 0 0
BITMAP
6000
3000
0C00
0300
0780
1C00
7000
8000
ENDCHAR
STARTCHAR question
ENCODING 63
SWIDTH 464 0
DWIDTH 6 0
BBX 6 10 2 0
BITMAP
F8
8C
0C
18
30
60
40
00
00
C0
ENDCHAR
STARTCHAR at
ENCODING 64
SWIDTH 858 0
DWIDTH 12 0
BBX 12 10 1 0
BITMAP
0FC0
1820
6790
4890
9990
9110
9330
DDC0
6000
3F00
ENDCHAR
STARTCHAR A
ENCODING 65
SWIDTH 687 0
DWIDTH 10 0
BBX 9 10 0 0
BITMAP
0600
0600
0F00
1B00
1900
3100
3F00
6180
4180
C180
ENDCHAR
STARTCHAR B
ENCODING 66
SWIDTH 593 0
DWIDTH 8 0
BBX 8 10 1 0
BITMAP
3E
23
23
66
7C
44
46
46
CE
FC
ENDCHAR
STARTCHAR C
ENCODING 67
SWIDTH 679 0
DWIDTH 10 0
BBX 9 10 2 0
BITMAP
0F80
3080
6000
6000
C000
C000
C000
C000
4300
3E00
ENDCHAR
STARTCHAR D
ENCODING 68
SWIDTH 743 0
DWIDTH 10 0
BBX 10 10 1 0
BITMAP
3F80
21C0
20C0
60C0
60C0
40C0
4080
4180
C300
FC00
ENDCHAR
STARTCHAR E
ENCODING 69
SWIDTH 547 0
DWIDTH 8 0
BBX 8 10 1 0
BITMAP
3F
20
20
60
7C
40
40
40
C0
FC
ENDCHAR
STARTCHAR F
ENCODING 70
SWIDTH 536 0
DWIDTH 8 0
BBX 8 10 1 0
BITMAP
3F
20
20
60
7C
40
40
40
C0
C0
ENDCHAR
STARTCHAR G
ENCODING 71
SWIDTH 702 0
DWIDTH 10 0
BBX 9 10 2 0
BITMAP
0F80
3080
6000
4000
C000
C000
C300
C300
6300
3E00
ENDCHAR
STARTCHAR H
ENCODING 72
SWIDTH 735 0
DWIDTH 10 0
BBX 10 10 1 0
BITMAP
30C0
20C0
2080
6080
7F80
4180
4180
4100
C100
C300
ENDCHAR
STARTCHAR I
ENCODING 73
SWIDTH 289 0
DWIDTH 4 0
BBX 3 10 2 0
BITMAP
60
60
60
60
40
40
C0
C0
C0
C0
ENDCHAR
STARTCHAR J
ENCODING 74
SWIDTH 408 0
DWIDTH 6 0
BBX 7 13 0 -3
BITMAP
06
06
06
04
0C
0C
0C
0C
08
08
18
18
F0
ENDCHAR
STARTCHAR K
ENCODING 75
SWIDTH 635 0
DWIDTH 9 0
BBX 9 10 1 0
BITMAP
3180
2300
2600
6C00
7800
5000
4800
4400
C400
C200
ENDCHAR
STARTCHAR L
ENCODING 76
SWIDTH 545 0
DWIDTH 8 0
BBX 6 10 1 0
BITMAP
30
20
60
60
60
40
40
C0
C0
FC
ENDCHAR
STARTCHAR M
ENCODING 77
SWIDTH 828 0
DWIDTH 12 0
BBX 11 10 1 0
BITMAP
3060
30E0
78E0
79C0
7940
4AC0
4EC0
CCC0
CC80
C180
ENDCHAR
STARTCHAR N
ENCODING 78
SWIDTH 741 0
DWIDTH 10 0
BBX 10 10 1 0
BITMAP
30C0
30C0
3880
7880
4C80
4C80
4780
4700
C300
C300
ENDCHAR
STARTCHAR O
ENCODING 79
SWIDTH 777 0
DWIDTH 11 0
BBX 10 10 1 0
BITMAP
0F80
30C0
60C0
4040
C040
C0C0
C0C0
C180
6300
3C00
ENDCHAR
STARTCHAR P
ENCODING 80
SWIDTH 575 0
DWIDTH 8 0
BBX 8 10 1 0
BITMAP
3E
23
23
63
66
78
40
40
C0
C0
ENDCHAR
STARTCHAR Q
ENCODING 81
SWIDTH 777 0
DWIDTH 11 0
BBX 10 13 1 -3
BITMAP
0F80
30C0
60C0
4040
C040
C0C0
C0C0
C180
6300
3E00
0200
01C0
0080
ENDCHAR
STARTCHAR R
ENCODING 82
SWIDTH 632 0
DWIDTH 9 0
BBX 8 10 1 0
BITMAP
3F
23
23
62
64
78
4C
44
C6
C3
ENDCHAR
STARTCHAR S
ENCODING 83
SWIDTH 553 0
DWIDTH 8 0
BBX 8 10 1 0
BITMAP
1F
31
20
30
18
0E
06
06
86
F8
ENDCHAR
STARTCHAR T
ENCODING 84
SWIDTH 623 0
DWIDTH 9 0
BBX 9 10 2 0
BITMAP
FF80
0800
1800
1800
1800
1000
1000
3000
3000
3000
ENDCHAR
STARTCHAR U
ENCODING 85
SWIDTH 693 0
DWIDTH 10 0
BBX 9 10 2 0
BITMAP
6180
6180
6100
4100
C100
C300
C300
C200
C600
7C00
ENDCHAR
STARTCHAR V
ENCODING 86
SWIDTH 687 0
DWIDTH 10 0
BBX 9 10 2 0
BITMAP
C180
C100
C300
4200
6600
6C00
6C00
7800
3000
3000
ENDCHAR
STARTCHAR W
ENCODING 87
SWIDTH 886 0
DWIDTH 12 0
BBX 13 10 2 0
BITMAP
C618
C630
CE20
CA60
DA40
D2C0
F280
E380
E300
4300
ENDCHAR
STARTCHAR X
ENCODING 88
SWIDTH 620 0
DWIDTH 9 0
BBX 10 10 0 0
BITMAP
30C0
1980
1B00
0E00
0C00
0C00
1E00
3600
6300
C380
ENDCHAR
STARTCHAR Y
ENCODING 89
SWIDTH 608 0
DWIDTH 9 0
BBX 8 10 2 0
BITMAP
C3
C6
64
68
30
30
30
20
20
60
ENDCHAR
STARTCHAR Z
ENCODING 90
SWIDTH 578 0
DWIDTH 8 0
BBX 9 10 0 0
BITMAP
3F80
0180
0300
0600
0C00
1800
3000
6000
E000
FE00
ENDCHAR
STARTCHAR bracketleft
ENCODING 91
SWIDTH 325 0
DWIDTH 5 0
BBX 5 13 1 -3
BITMAP
38
20
20
20
20
60
40
40
40
40
C0
80
E0
ENDCHAR
STARTCHAR backslash
ENCODING 92
SWIDTH 482 0
DWIDTH 7 0
BBX 4 13 2 -3
BITMAP
80
C0
C0
40
40
40
60
20
20
20
30
30
10
ENDCHAR
STARTCHAR bracketright
ENCODING 93
SWIDTH 325 0
DWIDTH 5 0
BBX 5 13 0 -3
BITMAP
38
08
18
10
10
10
10
30
20
20
20
20
E0
ENDCHAR
STARTCHAR asciicircum
ENCODING 94
SWIDTH 633 0
DWIDTH 9 0
BBX 8 8 1 2
BITMAP
04
04
0C
16
32
22
43
C1
ENDCHAR
STARTCHAR underscore
ENCODING 95
SWIDTH 500 0
DWIDTH 7 0
BBX 6 1 0 -2
BITMAP
FC
ENDCHAR
STARTCHAR grave
ENCODING 96
SWIDTH 572 0
DWIDTH 8 0
BBX 2 2 5 8
BITMAP
80
40
ENDCHAR
STARTCHAR a
ENCODING 97
SWIDTH 608 0
DWIDTH 9 0
BBX 7 7 1 0
BITMAP
1E
26
66
CC
CC
D4
EC
ENDCHAR
STARTCHAR b
ENCODING 98
SWIDTH 608 0
DWIDTH 9 0
BBX 7 10 2 0
BITMAP
30
20
60
6E
56
66
66
CC
C8
F0
ENDCHAR
STARTCHAR c
ENCODING 99
SWIDTH 503 0
DWIDTH 7 0
BBX 7 7 1 0
BITMAP
1E
60
40
C0
C0
C4
78
ENDCHAR
STARTCHAR d
ENCODING 100
SWIDTH 608 0
DWIDTH 9 0
BBX 8 10 1 0
BITMAP
03
03
02
1E
32
66
C6
CC
D4
EC
ENDCHAR
STARTCHAR e
ENCODING 101
SWIDTH 529 0
DWIDTH 7 0
BBX 6 7 1 0
BITMAP
1C
64
4C
F8
C0
C4
78
ENDCHAR
STARTCHAR f
ENCODING 102
SWIDTH 383 0
DWIDTH 5 0
BBX 7 14 1 -3
BITMAP
0E
18
30
30
78
20
20
60
60
60
40
40
C0
C0
ENDCHAR
STARTCHAR g
ENCODING 103
SWIDTH 608 0
DWIDTH 9 0
BBX 8 10 1 -3
BITMAP
0F
33
62
66
46
4A
76
04
84
F8
ENDCHAR
STARTCHAR h
ENCODING 104
SWIDTH 620 0
DWIDTH 9 0
BBX 7 10 1 0
BITMAP
30
20
20
6E
56
66
66
44
C4
CC
ENDCHAR
STARTCHAR i
ENCODING 105
SWIDTH 289 0
DWIDTH 4 0
BBX 3 10 2 0
BITMAP
20
00
00
60
40
40
40
C0
C0
C0
ENDCHAR
STARTCHAR j
ENCODING 106
SWIDTH 325 0
DWIDTH 5 0
BBX 7 13 -1 -3
BITMAP
06
00
00
04
04
0C
0C
0C
08
08
18
10
E0
ENDCHAR
STARTCHAR k
ENCODING 107
SWIDTH 572 0
DWIDTH 8 0
BBX 7 10 1 0
BITMAP
30
20
20
66
6C
58
70
58
D8
CC
ENDCHAR
STARTCHAR l
ENCODING 108
SWIDTH 289 0
DWIDTH 4 0
BBX 4 10 1 0
BITMAP
30
30
20
20
60
60
40
40
C0
C0
ENDCHAR
STARTCHAR m
ENCODING 109
SWIDTH 934 0
DWIDTH 13 0
BBX 12 7 1 0
BITMAP
2E70
72B0
7330
6630
4620
4420
8460
ENDCHAR
STARTCHAR n
ENCODING 110
SWIDTH 620 0
DWIDTH 9 0
BBX 7 7 1 0
BITMAP
6E
56
66
66
44
C4
CC
ENDCHAR
STARTCHAR o
ENCODING 111
SWIDTH 566 0
DWIDTH 8 0
BBX 7 7 1 0
BITMAP
1C
62
42
C2
C6
CC
78
ENDCHAR
STARTCHAR p
ENCODING 112
SWIDTH 608 0
DWIDTH 9 0
BBX 8 10 1 -3
BITMAP
37
2B
73
63
46
4C
78
C0
C0
80
ENDCHAR
STARTCHAR q
ENCODING 113
SWIDTH 608 0
DWIDTH 9 0
BBX 7 10 1 -3
BITMAP
1E
26
66
CC
CC
D4
EC
0C
08
08
ENDCHAR
STARTCHAR r
ENCODING 114
SWIDTH 478 0
DWIDTH 7 0
BBX 6 7 2 0
BITMAP
6C
50
60
60
40
C0
C0
ENDCHAR
STARTCHAR s
ENCODING 115
SWIDTH 489 0
DWIDTH 7 0
BBX 6 7 1 0
BITMAP
3C
64
60
30
18
98
F0
ENDCHAR
STARTCHAR t
ENCODING 116
SWIDTH 383 0
DWIDTH 5 0
BBX 5 9 1 0
BITMAP
20
20
F8
60
60
40
C0
C0
70
ENDCHAR
STARTCHAR u
ENCODING 117
SWIDTH 620 0
DWIDTH 9 0
BBX 7 7 2 0
BITMAP
46
46
44
4C
8C
DC
EC
ENDCHAR
STARTCHAR v
ENCODING 118
SWIDTH 545 0
DWIDTH 8 0
BBX 7 7 2 0
BITMAP
C6
C4
CC
D8
50
70
60
ENDCHAR
STARTCHAR w
ENCODING 119
SWIDTH 795 0
DWIDTH 11 0
BBX 10 7 2 0
BITMAP
CC40
CC80
D480
D500
6700
6600
4600
ENDCHAR
STARTCHAR x
ENCODING 120
SWIDTH 541 0
DWIDTH 8 0
BBX 8 7 0 0
BITMAP
33
36
1C
18
3C
6C
C6
ENDCHAR
STARTCHAR y
ENCODING 121
SWIDTH 548 0
DWIDTH 8 0
BBX 8 10 1 -3
BITMAP
C3
42
64
6C
68
70
30
60
40
C0
ENDCHAR
STARTCHAR z
ENCODING 122
SWIDTH 536 0
DWIDTH 8 0
BBX 7 7 1 0
BITMAP
7E
0E
1C
38
70
E0
FC
ENDCHAR
STARTCHAR braceleft
ENCODING 123
SWIDTH 325 0
DWIDTH 5 0
BBX 5 13 1 -3
BITMAP
18
30
20
20
20
60
80
40
40
40
C0
C0
40
ENDCHAR
STARTCHAR bar
ENCODING 124
SWIDTH 233 0
DWIDTH 3 0
BBX 4 13 0 -3
BITMAP
10
30
20
20
20
20
60
40
40
40
40
C0
80
ENDCHAR
STARTCHAR braceright
ENCODING 125
SWIDTH 325 0
DWIDTH 5 0
BBX 5 13 0 -3
BITMAP
10
18
18
10
10
10
08
30
20
20
20
60
C0
ENDCHAR
STARTCHAR asciitilde
ENCODING 126
SWIDTH 633 0
DWIDTH 9 0
BBX 9 3 1 2
BITMAP
7080
C980
8700
ENDCHAR
STARTCHAR space
ENCODING 160
SWIDTH 316 0
DWIDTH 4 0
BBX 1 1 0 0
BITMAP
00
ENDCHAR
STARTCHAR exclamdown
ENCODING 161
SWIDTH 193 0
DWIDTH 4 0
BBX 3 10 1 -3
BITMAP
60
00
00
40
40
40
40
C0
C0
C0
ENDCHAR
STARTCHAR cent
ENCODING 162
SWIDTH 633 0
DWIDTH 9 0
BBX 7 10 2 0
BITMAP
0C
0E
38
48
D0
D0
D0
D4
7C
20
ENDCHAR
STARTCHAR sterling
ENCODING 163
SWIDTH 633 0
DWIDTH 9 0
BBX 8 10 2 0
BITMAP
0F
18
10
10
78
30
30
20
60
FC
ENDCHAR
STARTCHAR currency
ENCODING 164
SWIDTH 633 0
DWIDTH 9 0
BBX 10 8 0 1
BITMAP
6040
3E80
1100
2100
2100
3200
7F00
8180
ENDCHAR
STARTCHAR yen
ENCODING 165
SWIDTH 633 0
DWIDTH 9 0
BBX 8 10 2 0
BITMAP
C3
66
6C
38
FC
30
F8
20
20
20
ENDCHAR
STARTCHAR brokenbar
ENCODING 166
SWIDTH 233 0
DWIDTH 3 0
BBX 4 13 1 -3
BITMAP
10
30
20
20
20
00
00
00
40
40
40
C0
80
ENDCHAR
STARTCHAR section
ENCODING 167
SWIDTH 633 0
DWIDTH 9 0
BBX 8 13 1 -3
BITMAP
1F
30
20
30
3C
66
62
72
3C
0E
06
84
F8
ENDCHAR
STARTCHAR dieresis
ENCODING 168
SWIDTH 566 0
DWIDTH 8 0
BBX 4 1 4 9
BITMAP
90
ENDCHAR
STARTCHAR copyright
ENCODING 169
SWIDTH 858 0
DWIDTH 12 0
BBX 11 10 1 0
BITMAP
1F00
60C0
4760
8820
9020
9020
9820
4E60
60C0
1F00
ENDCHAR
STARTCHAR ordfeminine
ENCODING 170
SWIDTH 392 0
DWIDTH 5 0
BBX 6 5 2 5
BITMAP
3C
48
D8
A8
D8
ENDCHAR
STARTCHAR guillemotleft
ENCODING 171
SWIDTH 527 0
DWIDTH 7 0
BBX 7 7 1 0
BITMAP
12
24
48
D0
C8
68
24
ENDCHAR
STARTCHAR logicalnot
ENCODING 172
SWIDTH 633 0
DWIDTH 9 0
BBX 8 4 1 2
BITMAP
FF
01
03
02
ENDCHAR
STARTCHAR hyphen
ENCODING 173
SWIDTH 313 0
DWIDTH 4 0
BBX 3 1 2 4
BITMAP
E0
ENDCHAR
STARTCHAR registered
ENCODING 174
SWIDTH 633 0
DWIDTH 9 0
BBX 7 6 2 4
BITMAP
7C
DE
BA
AA
EE
7C
ENDCHAR
STARTCHAR macron
ENCODING 175
SWIDTH 566 0
DWIDTH 8 0
BBX 4 1 4 9
BITMAP
F0
ENDCHAR
STARTCHAR degree
ENCODING 176
SWIDTH 269 0
DWIDTH 4 0
BBX 3 2 2 8
BITMAP
E0
E0
ENDCHAR
STARTCHAR plusminus
ENCODING 177
SWIDTH 633 0
DWIDTH 9 0
BBX 9 8 0 0
BITMAP
0400
0C00
0C00
7F80
0800
0800
0000
FF00
ENDCHAR
STARTCHAR twosuperior
ENCODING 178
SWIDTH 392 0
DWIDTH 5 0
BBX 5 6 -7 4
BITMAP
78
08
18
20
40
F0
ENDCHAR
STARTCHAR threesuperior
ENCODING 179
SWIDTH 392 0
DWIDTH 5 0
BBX 4 6 -8 4
BITMAP
70
10
60
10
10
E0
ENDCHAR
STARTCHAR acute
ENCODING 180
SWIDTH 566 0
DWIDTH 8 0
BBX 3 2 5 8
BITMAP
60
80
ENDCHAR
STARTCHAR mu
ENCODING 181
SWIDTH 627 0
DWIDTH 9 0
BBX 8 10 1 -3
BITMAP
23
23
62
66
46
4E
76
C0
C0
80
ENDCHAR
STARTCHAR paragraph
ENCODING 182
SWIDTH 633 0
DWIDTH 9 0
BBX 6 13 2 -3
BITMAP
7C
F4
F4
F8
78
28
28
28
30
30
30
50
50
ENDCHAR
STARTCHAR periodcentered
ENCODING 183
SWIDTH 316 0
DWIDTH 9 0
BBX 2 1 4 4
BITMAP
C0
ENDCHAR
STARTCHAR cedilla
ENCODING 184
SWIDTH 566 0
DWIDTH 8 0
BBX 2 3 3 -3
BITMAP
40
40
C0
ENDCHAR
STARTCHAR onesuperior
ENCODING 185
SWIDTH 392 0
DWIDTH 5 0
BBX 2 6 -9 4
BITMAP
C0
40
40
80
80
80
ENDCHAR
STARTCHAR ordmasculine
ENCODING 186
SWIDTH 392 0
DWIDTH 5 0
BBX 6 5 1 5
BITMAP
3C
4C
CC
C8
F0
ENDCHAR
STARTCHAR guillemotright
ENCODING 187
SWIDTH 527 0
DWIDTH 7 0
BBX 7 7 1 0
BITMAP
48
24
24
12
24
48
90
ENDCHAR
STARTCHAR onequarter
ENCODING 188
SWIDTH 865 0
DWIDTH 12 0
BBX 11 10 6 0
BITMAP
C060
40C0
4180
8300
8640
8CC0
1940
3140
63C0
C080
ENDCHAR
STARTCHAR onehalf
ENCODING 189
SWIDTH 865 0
DWIDTH 12 0
BBX 11 10 6 0
BITMAP
C060
40C0
4180
8300
87E0
8C20
1860
3080
6100
C3C0
ENDCHAR
STARTCHAR threequarters
ENCODING 190
SWIDTH 865 0
DWIDTH 12 0
BBX 12 10 7 0
BITMAP
7030
1060
60C0
1180
1320
E660
0CA0
18A0
31E0
6040
ENDCHAR
STARTCHAR questiondown
ENCODING 191
SWIDTH 464 0
DWIDTH 6 0
BBX 6 10 0 -3
BITMAP
0C
00
00
18
10
20
C0
C0
CC
78
ENDCHAR
STARTCHAR Agrave
ENCODING 192
SWIDTH 687 0
DWIDTH 10 0
BBX 9 13 0 0
BITMAP
0400
0200
0000
0600
0600
0F00
1B00
1900
3100
3F00
6180
4180
C180
ENDCHAR
STARTCHAR Aacute
ENCODING 193
SWIDTH 687 0
DWIDTH 10 0
BBX 9 13 0 0
BITMAP
0180
0200
0000
0600
0600
0F00
1B00
1900
3100
3F00
6180
4180
C180
ENDCHAR
STARTCHAR Acircumflex
ENCODING 194
SWIDTH 687 0
DWIDTH 10 0
BBX 9 13 0 0
BITMAP
0600
0D00
0000
0600
0600
0F00
1B00
1900
3100
3F00
6180
4180
C180
ENDCHAR
STARTCHAR Atilde
ENCODING 195
SWIDTH 687 0
DWIDTH 10 0
BBX 9 12 0 0
BITMAP
0780
0000
0600
0600
0F00
1B00
1900
3100
3F00
6180
4180
C180
ENDCHAR
STARTCHAR Adieresis
ENCODING 196
SWIDTH 687 0
DWIDTH 10 0
BBX 9 12 0 0
BITMAP
0480
0000
0600
0600
0F00
1B00
1900
3100
3F00
6180
4180
C180
ENDCHAR
STARTCHAR Aring
ENCODING 197
SWIDTH 687 0
DWIDTH 10 0
BBX 9 13 0 0
BITMAP
0300
0300
0000
0600
0600
0F00
1B00
1900
3100
3F00
6180
4180
C180
ENDCHAR
STARTCHAR AE
ENCODING 198
SWIDTH 893 0
DWIDTH 12 0
BBX 14 10 0 0
BITMAP
01FC
0380
0380
0680
0DF0
1980
3F00
3300
6300
C3F0
ENDCHAR
STARTCHAR Ccedilla
ENCODING 199
SWIDTH 679 0
DWIDTH 10 0
BBX 9 13 2 -3
BITMAP
0F80
3080
6000
6000
C000
C000
C000
C000
4300
3E00
1000
1000
3000
ENDCHAR
STARTCHAR Egrave
ENCODING 200
SWIDTH 547 0
DWIDTH 8 0
BBX 8 13 1 0
BITMAP
08
04
00
3F
20
20
60
7C
40
40
40
C0
FC
ENDCHAR
STARTCHAR Eacute
ENCODING 201
SWIDTH 547 0
DWIDTH 8 0
BBX 8 13 1 0
BITMAP
06
08
00
3F
20
20
60
7C
40
40
40
C0
FC
ENDCHAR
STARTCHAR Ecircumflex
ENCODING 202
SWIDTH 547 0
DWIDTH 8 0
BBX 8 13 1 0
BITMAP
0C
1A
00
3F
20
20
60
7C
40
40
40
C0
FC
ENDCHAR
STARTCHAR Edieresis
ENCODING 203
SWIDTH 547 0
DWIDTH 8 0
BBX 8 12 1 0
BITMAP
12
00
3F
20
20
60
7C
40
40
40
C0
FC
ENDCHAR
STARTCHAR Igrave
ENCODING 204
SWIDTH 289 0
DWIDTH 4 0
BBX 3 13 2 0
BITMAP
40
20
00
60
60
60
60
40
40
C0
C0
C0
C0
ENDCHAR
STARTCHAR Iacute
ENCODING 205
SWIDTH 289 0
DWIDTH 4 0
BBX 5 13 2 0
BITMAP
18
20
00
60
60
60
60
40
40
C0
C0
C0
C0
ENDCHAR
STARTCHAR Icircumflex
ENCODING 206
SWIDTH 289 0
DWIDTH 4 0
BBX 4 13 2 0
BITMAP
60
D0
00
60
60
60
60
40
40
C0
C0
C0
C0
ENDCHAR
STARTCHAR Idieresis
ENCODING 207
SWIDTH 289 0
DWIDTH 4 0
BBX 5 12 2 0
BITMAP
48
00
60
60
60
60
40
40
C0
C0
C0
C0
ENDCHAR
STARTCHAR Eth
ENCODING 208
SWIDTH 743 0
DWIDTH 10 0
BBX 10 10 1 0
BITMAP
3F80
31C0
30C0
20C0
F8C0
60C0
6080
6180
4300
7E00
ENDCHAR
STARTCHAR Ntilde
ENCODING 209
SWIDTH 741 0
DWIDTH 10 0
BBX 10 12 1 0
BITMAP
0F00
0000
30C0
30C0
3880
7880
4C80
4C80
4780
4700
C300
C300
ENDCHAR
STARTCHAR Ograve
ENCODING 210
SWIDTH 777 0
DWIDTH 11 0
BBX 10 13 1 0
BITMAP
0400
0200
0000
0F80
30C0
60C0
4040
C040
C0C0
C0C0
C180
6300
3C00
ENDCHAR
STARTCHAR Oacute
ENCODING 211
SWIDTH 777 0
DWIDTH 11 0
BBX 10 13 1 0
BITMAP
0300
0400
0000
0F80
30C0
60C0
4040
C040
C0C0
C0C0
C180
6300
3C00
ENDCHAR
STARTCHAR Ocircumflex
ENCODING 212
SWIDTH 777 0
DWIDTH 11 0
BBX 10 13 1 0
BITMAP
0600
0D00
0000
0F80
30C0
60C0
4040
C040
C0C0
C0C0
C180
6300
3C00
ENDCHAR
STARTCHAR Otilde
ENCODING 213
SWIDTH 777 0
DWIDTH 11 0
BBX 10 12 1 0
BITMAP
0F00
0000
0F80
30C0
60C0
4040
C040
C0C0
C0C0
C180
6300
3C00
ENDCHAR
STARTCHAR Odieresis
ENCODING 214
SWIDTH 777 0
DWIDTH 11 0
BBX 10 12 1 0
BITMAP
0900
0000
0F80
30C0
60C0
4040
C040
C0C0
C0C0
C180
6300
3C00
ENDCHAR
STARTCHAR multiply
ENCODING 215
SWIDTH 633 0
DWIDTH 9 0
BBX 9 8 1 0
BITMAP
6080
2300
1600
1C00
1800
3400
6200
8100
ENDCHAR
STARTCHAR Oslash
ENCODING 216
SWIDTH 777 0
DWIDTH 11 0
BBX 12 10 2 0
BITMAP
07F0
1860
30E0
21A0
6220
6460
6860
70C0
7180
DE00
ENDCHAR
STARTCHAR Ugrave
ENCODING 217
SWIDTH 693 0
DWIDTH 10 0
BBX 9 13 2 0
BITMAP
0800
0400
0000
6180
6180
6100
4100
C100
C300
C300
C200
C600
7C00
ENDCHAR
STARTCHAR Uacute
ENCODING 218
SWIDTH 693 0
DWIDTH 10 0
BBX 9 13 2 0
BITMAP
0600
0800
0000
6180
6180
6100
4100
C100
C300
C300
C200
C600
7C00
ENDCHAR
STARTCHAR Ucircumflex
ENCODING 219
SWIDTH 693 0
DWIDTH 10 0
BBX 9 13 2 0
BITMAP
0C00
1A00
0000
6180
6180
6100
4100
C100
C300
C300
C200
C600
7C00
ENDCHAR
STARTCHAR Udieresis
ENCODING 220
SWIDTH 693 0
DWIDTH 10 0
BBX 9 12 2 0
BITMAP
1200
0000
6180
6180
6100
4100
C100
C300
C300
C200
C600
7C00
ENDCHAR
STARTCHAR Yacute
ENCODING 221
SWIDTH 608 0
DWIDTH 9 0
BBX 8 13 2 0
BITMAP
0C
10
00
C3
C6
64
68
30
30
30
20
20
60
ENDCHAR
STARTCHAR Thorn
ENCODING 222
SWIDTH 575 0
DWIDTH 8 0
BBX 7 10 1 0
BITMAP
20
20
7C
66
46
46
4C
F8
C0
C0
ENDCHAR
STARTCHAR germandbls
ENCODING 223
SWIDTH 595 0
DWIDTH 8 0
BBX 8 14 1 -3
BITMAP
1E
13
32
36
28
2C
2E
67
63
43
5E
40
C0
C0
ENDCHAR
STARTCHAR agrave
ENCODING 224
SWIDTH 608 0
DWIDTH 9 0
BBX 7 10 1 0
BITMAP
08
04
00
1E
26
66
CC
CC
D4
EC
ENDCHAR
STARTCHAR aacute
ENCODING 225
SWIDTH 608 0
DWIDTH 9 0
BBX 7 10 1 0
BITMAP
06
08
00
1E
26
66
CC
CC
D4
EC
ENDCHAR
STARTCHAR acircumflex
ENCODING 226
SWIDTH 608 0
DWIDTH 9 0
BBX 7 10 1 0
BITMAP
0C
1A
00
1E
26
66
CC
CC
D4
EC
ENDCHAR
STARTCHAR atilde
ENCODING 227
SWIDTH 608 0
DWIDTH 9 0
BBX 7 9 1 0
BITMAP
1E
00
1E
26
66
CC
CC
D4
EC
ENDCHAR
STARTCHAR adieresis
ENCODING 228
SWIDTH 608 0
DWIDTH 9 0
BBX 7 9 1 0
BITMAP
12
00
1E
26
66
CC
CC
D4
EC
ENDCHAR
STARTCHAR aring
ENCODING 229
SWIDTH 608 0
DWIDTH 9 0
BBX 7 10 1 0
BITMAP
0C
0C
00
1E
26
66
CC
CC
D4
EC
ENDCHAR
STARTCHAR ae
ENCODING 230
SWIDTH 893 0
DWIDTH 12 0
BBX 12 7 1 0
BITMAP
1FE0
3330
6220
C7C0
CE00
DE10
F3E0
ENDCHAR
STARTCHAR ccedilla
ENCODING 231
SWIDTH 503 0
DWIDTH 7 0
BBX 7 10 1 -3
BITMAP
1E
60
40
C0
C0
C4
78
20
20
60
ENDCHAR
STARTCHAR egrave
ENCODING 232
SWIDTH 529 0
DWIDTH 7 0
BBX 6 10 1 0
BITMAP
08
04
00
1C
64
4C
F8
C0
C4
78
ENDCHAR
STARTCHAR eacute
ENCODING 233
SWIDTH 529 0
DWIDTH 7 0
BBX 7 10 1 0
BITMAP
06
08
00
1C
64
4C
F8
C0
C4
78
ENDCHAR
STARTCHAR ecircumflex
ENCODING 234
SWIDTH 529 0
DWIDTH 7 0
BBX 7 10 1 0
BITMAP
0C
1A
00
1C
64
4C
F8
C0
C4
78
ENDCHAR
STARTCHAR edieresis
ENCODING 235
SWIDTH 529 0
DWIDTH 7 0
BBX 7 9 1 0
BITMAP
12
00
1C
64
4C
F8
C0
C4
78
ENDCHAR
STARTCHAR igrave
ENCODING 236
SWIDTH 289 0
DWIDTH 4 0
BBX 4 10 1 0
BITMAP
20
10
00
60
60
60
40
40
C0
C0
ENDCHAR
STARTCHAR iacute
ENCODING 237
SWIDTH 289 0
DWIDTH 4 0
BBX 5 10 1 0
BITMAP
18
20
00
60
60
60
40
40
C0
C0
ENDCHAR
STARTCHAR icircumflex
ENCODING 238
SWIDTH 289 0
DWIDTH 4 0
BBX 5 10 1 0
BITMAP
30
68
00
60
60
60
40
40
C0
C0
ENDCHAR
STARTCHAR idieresis
ENCODING 239
SWIDTH 289 0
DWIDTH 4 0
BBX 5 9 1 0
BITMAP
48
00
60
60
60
40
40
C0
C0
ENDCHAR
STARTCHAR eth
ENCODING 240
SWIDTH 556 0
DWIDTH 8 0
BBX 7 10 1 0
BITMAP
3E
0C
16
3E
66
42
C2
C6
CC
78
ENDCHAR
STARTCHAR ntilde
ENCODING 241
SWIDTH 620 0
DWIDTH 9 0
BBX 7 9 1 0
BITMAP
1E
00
6E
56
66
66
44
C4
CC
ENDCHAR
STARTCHAR ograve
ENCODING 242
SWIDTH 566 0
DWIDTH 8 0
BBX 7 10 1 0
BITMAP
08
04
00
1C
62
42
C2
C6
CC
78
ENDCHAR
STARTCHAR oacute
ENCODING 243
SWIDTH 566 0
DWIDTH 8 0
BBX 7 10 1 0
BITMAP
06
08
00
1C
62
42
C2
C6
CC
78
ENDCHAR
STARTCHAR ocircumflex
ENCODING 244
SWIDTH 566 0
DWIDTH 8 0
BBX 7 10 1 0
BITMAP
0C
1A
00
1C
62
42
C2
C6
CC
78
ENDCHAR
STARTCHAR otilde
ENCODING 245
SWIDTH 566 0
DWIDTH 8 0
BBX 7 9 1 0
BITMAP
1E
00
1C
62
42
C2
C6
CC
78
ENDCHAR
STARTCHAR odieresis
ENCODING 246
SWIDTH 566 0
DWIDTH 8 0
BBX 7 9 1 0
BITMAP
12
00
1C
62
42
C2
C6
CC
78
ENDCHAR
STARTCHAR divide
ENCODING 247
SWIDTH 633 0
DWIDTH 9 0
BBX 8 7 1 0
BITMAP
08
00
00
FF
00
00
10
ENDCHAR
STARTCHAR oslash
ENCODING 248
SWIDTH 566 0
DWIDTH 8 0
BBX 8 7 1 0
BITMAP
1F
66
4E
DA
F6
EC
F8
ENDCHAR
STARTCHAR ugrave
ENCODING 249
SWIDTH 620 0
DWIDTH 9 0
BBX 7 10 2 0
BITMAP
08
04
00
46
46
44
4C
8C
DC
EC
ENDCHAR
STARTCHAR uacute
ENCODING 250
SWIDTH 620 0
DWIDTH 9 0
BBX 7 10 2 0
BITMAP
06
08
00
46
46
44
4C
8C
DC
EC
ENDCHAR
STARTCHAR ucircumflex
ENCODING 251
SWIDTH 620 0
DWIDTH 9 0
BBX 7 10 2 0
BITMAP
0C
1A
00
46
46
44
4C
8C
DC
EC
ENDCHAR
STARTCHAR udieresis
ENCODING 252
SWIDTH 620 0
DWIDTH 9 0
BBX 7 9 2 0
BITMAP
12
00
46
46
44
4C
8C
DC
EC
ENDCHAR
STARTCHAR yacute
ENCODING 253
SWIDTH 548 0
DWIDTH 8 0
BBX 8 13 1 -3
BITMAP
06
08
00
C3
42
64
6C
68
70
30
60
40
C0
ENDCHAR
STARTCHAR thorn
ENCODING 254
SWIDTH 608 0
DWIDTH 9 0
BBX 8 13 1 -3
BITMAP
30
30
20
27
2B
73
63
46
4C
78
C0
C0
80
ENDCHAR
STARTCHAR ydieresis
ENCODING 255
SWIDTH 548 0
DWIDTH 8 0
BBX 8 12 1 -3
BITMAP
12
00
C3
42
64
6C
68
70
30
60
40
C0
ENDCHAR
ENDFONT
